ply
format ascii 1.0
element vertex 365
property float x
property float y
property float z
property uchar red
property uchar green
property uchar blue
end_header
-0.328395605087280273 -0.0514954626560211182 2.31766295433044434 225 245 247
0.649677276611328125 0.715907752513885498 2.05354046821594238 65 98 107
0.772818982601165771 0.75738227367401123 2.01909494400024414 60 92 104
-0.0281190294772386551 0.709805905818939209 1.80718505382537842 78 111 120
-0.391923397779464722 -0.382237106561660767 1.3313525915145874 22 39 45
-0.185035482048988342 -0.210347652435302734 1.05803811550140381 52 76 84
-1.04010391235351562 0.387125670909881592 1.95006537437438965 47 75 84
-0.0635663866996765137 0.476533830165863037 2.20435476303100586 72 109 119
0.630658328533172607 0.727823317050933838 2.03614997863769531 65 99 108
0.85121762752532959 0.649111509323120117 2.26317524909973145 57 89 100
-1.2475888729095459 0.462599813938140869 1.71870827674865723 32 52 62
0.271119058132171631 0.89226001501083374 1.59181571006774902 78 111 117
0.0300506949424743652 0.789734542369842529 1.70419955253601074 88 124 132
1.10287225246429443 0.973499417304992676 1.73674905300140381 32 50 62
-1.11208856105804443 0.208577096462249756 2.25330233573913574 37 63 76
-0.167253881692886353 -0.0335093550384044647 1.07926809787750244 96 112 110
-1.01321065425872803 0.580248832702636719 1.58416640758514404 41 63 76
0.363130748271942139 0.86495518684387207 1.67502927780151367 76 109 114
-0.328395605087280273 -0.0514954626560211182 2.31766295433044434 225 245 247
-1.46395039558410645 0.131032809615135193 2.28890323638916016 32 56 66
1.03312933444976807 0.789764642715454102 2.05700421333312988 46 73 84
-0.823767542839050293 0.658410847187042236 1.50694930553436279 52 76 86
-0.0429397746920585632 0.206718266010284424 2.75970125198364258 54 90 102
1.11680185794830322 0.90265887975692749 1.87637996673583984 36 58 70
0.0314213111996650696 -0.618633389472961426 2.85784912109375 24 35 38
0.410050481557846069 0.581416606903076172 2.23341751098632812 69 104 110
0.554721593856811523 0.521232366561889648 2.41112184524536133 62 96 106
-1.14710044860839844 0.392237305641174316 1.89167821407318115 41 67 80
0.953767716884613037 0.66726154088973999 2.25697588920593262 54 86 97
-0.669525861740112305 0.542262256145477295 1.89063727855682373 43 61 67
-0.972335934638977051 0.0590107999742031097 1.91852486133575439 34 55 66
0.0613311566412448883 -0.238196298480033875 1.63336098194122314 65 84 91
0.036144796758890152 0.606011569499969482 2.04980111122131348 66 94 103
-0.228569924831390381 0.493302673101425171 1.06451749801635742 69 88 88
-1.11084854602813721 -0.0323091894388198853 2.41308164596557617 29 49 61
-0.762664616107940674 0.748309969902038574 1.37843143939971924 48 68 77
-0.590519189834594727 0.694615006446838379 1.49893736839294434 70 98 106
0.369274288415908813 0.77676159143447876 1.81449520587921143 79 114 123
-0.803552567958831787 0.216968268156051636 1.69661343097686768 20 36 45
-0.574443697929382324 0.684563159942626953 1.53576993942260742 69 100 105
-0.315108507871627808 0.339579641819000244 2.33320403099060059 69 97 107
-0.644576847553253174 -0.292107999324798584 1.78669118881225586 24 41 53
0.0922687575221061707 -0.191624656319618225 1.60565733909606934 29 38 40
-0.0908902958035469055 0.466556698083877563 2.1582024097442627 77 113 125
0.660285353660583496 0.90556037425994873 1.69567537307739258 59 87 98
0.595698237419128418 0.805770695209503174 1.84422159194946289 67 100 107
-0.569031119346618652 -0.217985302209854126 1.49476993083953857 18 32 40
-0.605777561664581299 0.220287561416625977 2.37981295585632324 55 88 101
1.35096073150634766 0.959421992301940918 1.89029085636138916 26 44 57
-0.0839741826057434082 0.571901977062225342 1.99397838115692139 69 100 111
-0.484330743551254272 0.54572373628616333 1.90270590782165527 65 97 106
0.180347517132759094 -0.0929413735866546631 2.3306577205657959 39 67 83
-0.400217235088348389 0.68501359224319458 1.70571839809417725 84 114 122
-0.827084660530090332 0.701009154319763184 1.3347175121307373 43 63 73
-1.11437332630157471 0.475072115659713745 1.65637397766113281 39 62 73
-0.645889580249786377 0.493301659822463989 1.89493834972381592 68 98 104
-0.764637410640716553 0.314257293939590454 2.15921759605407715 59 90 98
0.0179376993328332901 0.799251437187194824 1.63147985935211182 89 126 134
-1.39787018299102783 0.192327633500099182 2.07775592803955078 35 59 71
0.349628418684005737 0.643137991428375244 2.05276608467102051 76 113 121
1.22682046890258789 0.549851655960083008 2.54350900650024414 44 73 86
0.394417941570281982 0.680736362934112549 2.00339341163635254 77 113 122
-0.561139702796936035 0.490456730127334595 1.95015358924865723 61 90 98
0.871402740478515625 0.860903143882751465 1.85777723789215088 50 78 89
0.262541830539703369 0.345339417457580566 2.52602314949035645 53 82 93
1.50461137294769287 0.977722287178039551 1.92634689807891846 20 38 49
1.38910353183746338 0.723147332668304443 2.30813956260681152 36 61 73
0.220912829041481018 -0.110590681433677673 2.27051711082458496 21 35 41
-0.0852018222212791443 0.717280685901641846 1.74764144420623779 76 108 116
0.290427893400192261 0.820302307605743408 1.70518326759338379 83 117 125
0.651037454605102539 0.629869222640991211 2.19608545303344727 62 95 104
-0.933089494705200195 0.624452710151672363 1.42922687530517578 41 61 72
0.16633133590221405 0.286002516746520996 2.59473633766174316 50 79 91
0.281593203544616699 0.104484006762504578 2.15798163414001465 30 48 56
-0.818063020706176758 -0.0853256359696388245 1.75180506706237793 18 30 36
-1.40347468852996826 0.249539166688919067 1.95130598545074463 31 53 66
0.922554671764373779 0.745234072208404541 2.08485817909240723 54 84 94
0.708656013011932373 0.693576455116271973 1.98948454856872559 65 99 108
-1.13323831558227539 0.0678866952657699585 2.2070927619934082 36 63 76
-0.848538219928741455 0.376766324043273926 1.81706488132476807 58 87 93
-0.552905559539794922 0.515448510646820068 1.7971491813659668 70 99 104
-0.0986082032322883606 -0.115532249212265015 0.968065381050109863 208 215 217
-1.00994205474853516 0.561883330345153809 1.43057012557983398 39 59 70
-0.359973162412643433 0.330286532640457153 2.13955330848693848 77 114 122
-0.433757901191711426 0.452459782361984253 1.29785513877868652 31 43 43
0.208941921591758728 0.766890823841094971 1.68704843521118164 90 127 135
-0.847156047821044922 0.580489158630371094 1.47794103622436523 50 73 79
1.29793310165405273 0.581030189990997314 2.39435267448425293 40 68 80
-0.536482155323028564 0.468905091285705566 1.86445999145507812 72 105 110
-0.554106771945953369 0.365132957696914673 2.01886773109436035 66 96 104
-0.964507222175598145 -0.0583283938467502594 2.62519359588623047 39 67 82
-0.320347905158996582 0.522598624229431152 1.1961066722869873 39 53 58
-0.60421597957611084 -0.278950423002243042 1.70621228218078613 25 42 52
-0.00500317104160785675 0.396454781293869019 2.19204998016357422 76 113 122
0.371120095252990723 0.284533858299255371 2.58141207695007324 37 64 75
-0.0980324745178222656 -0.259317755699157715 0.962413311004638672 68 75 68
-1.1176450252532959 -0.129454866051673889 2.65781426429748535 40 67 84
-1.06499016284942627 0.157403156161308289 2.10134172439575195 47 75 87
-0.466567367315292358 0.29706871509552002 2.17294168472290039 68 101 110
-0.132002577185630798 -0.0389767475426197052 0.977405965328216553 148 172 168
-0.144479960203170776 0.126290351152420044 2.60836338996887207 58 89 99
-1.52781581878662109 0.0641522631049156189 2.08568120002746582 29 53 65
1.04413449764251709 0.2814808189868927 2.7760930061340332 44 76 89
1.20916950702667236 0.865575611591339111 1.90414071083068848 36 56 68
-0.681444227695465088 0.736594617366790771 1.29372560977935791 51 74 80
0.743354320526123047 0.770374834537506104 1.87700426578521729 62 93 103
0.609539151191711426 0.7759360671043396 1.81256675720214844 67 100 107
-1.40522909164428711 -0.0102303642779588699 2.2436680793762207 35 62 73
0.788311004638671875 0.802436649799346924 1.83659076690673828 59 88 99
1.25107765197753906 0.860194742679595947 1.92978715896606445 35 55 68
-1.42180037498474121 0.221060886979103088 1.85681760311126709 29 49 60
-1.14678966999053955 0.138619661331176758 2.09786605834960938 45 71 84
0.0668333321809768677 -0.307862848043441772 1.31493842601776123 26 30 31
1.33014523983001709 0.878688037395477295 1.93298614025115967 29 48 60
0.918371021747589111 0.938137173652648926 1.67366182804107666 41 62 72
0.811001121997833252 0.373092025518417358 2.56346297264099121 52 86 96
-1.43570148944854736 0.164116010069847107 1.95993220806121826 31 54 67
-0.907162666320800781 0.348665714263916016 1.83808350563049316 57 86 94
-0.73445594310760498 -0.136964485049247742 2.81199288368225098 43 72 91
-1.48118996620178223 0.115755148231983185 2.02203035354614258 30 54 67
-0.0665558949112892151 -0.431213706731796265 1.07296955585479736 29 53 67
0.036276206374168396 0.837754547595977783 1.49457645416259766 91 125 129
1.11829841136932373 0.884145379066467285 1.83789551258087158 37 59 72
0.470705360174179077 0.567038297653198242 2.10673117637634277 72 109 116
0.826120734214782715 0.408995509147644043 2.50608086585998535 54 87 98
-0.492089241743087769 0.718760967254638672 1.41613101959228516 76 103 109
-0.487261742353439331 -0.0865058302879333496 2.78617668151855469 55 88 105
-0.594227254390716553 0.318799853324890137 2.06514406204223633 67 100 109
-0.484113723039627075 0.279685765504837036 2.1870415210723877 63 95 106
-0.110377095639705658 0.588329136371612549 1.159149169921875 29 40 42
-0.662533044815063477 0.412172853946685791 1.90663313865661621 59 88 98
0.258661061525344849 0.657596588134765625 1.88627839088439941 86 123 129
-1.52781581878662109 0.0641522631049156189 2.08568120002746582 29 53 65
0.0284323226660490036 -0.346659660339355469 1.17140913009643555 21 35 37
-0.108511075377464294 0.525266885757446289 1.00010514259338379 51 59 58
-1.15919005870819092 0.387685954570770264 1.72298824787139893 38 62 72
0.692650318145751953 0.843959689140319824 1.69224119186401367 62 91 99
-0.635370135307312012 0.686047494411468506 1.40040123462677002 65 90 94
1.11573493480682373 0.885515868663787842 1.77556633949279785 34 54 68
0.548633456230163574 0.487384945154190063 2.25454998016357422 69 103 112
-0.919363558292388916 0.2865334153175354 1.96873068809509277 47 75 83
-0.128182023763656616 0.711064040660858154 1.56423771381378174 63 87 95
-0.795681416988372803 0.441059112548828125 1.75373876094818115 62 92 102
-0.687644004821777344 0.115708038210868835 2.38979959487915039 57 90 105
-0.312824279069900513 0.592004656791687012 1.78873825073242188 88 125 133
-0.260648608207702637 0.660610616207122803 1.68193244934082031 91 124 130
0.684475600719451904 0.448003113269805908 2.36176705360412598 61 95 104
1.24925434589385986 0.961925089359283447 1.71610009670257568 24 42 54
1.54318618774414062 0.810448050498962402 2.06342267990112305 26 44 56
0.825651466846466064 0.909437954425811768 1.62246167659759521 46 70 80
-0.158878087997436523 0.295884132385253906 2.31370687484741211 63 93 103
0.171771571040153503 0.0532465167343616486 2.42814326286315918 31 49 56
-1.81928777694702148 -0.0923445671796798706 2.31569170951843262 22 45 59
1.17368984222412109 0.420263826847076416 2.57512640953063965 47 76 92
0.298813760280609131 0.684790849685668945 1.82557451725006104 86 123 130
-0.799545347690582275 0.45214506983757019 1.73684191703796387 64 93 100
-0.54313349723815918 0.613907754421234131 1.5630258321762085 65 93 97
-0.0378197133541107178 0.549861013889312744 1.31151187419891357 59 87 97
0.713694393634796143 0.768429577350616455 1.83283495903015137 64 97 104
1.52465522289276123 0.674567222595214844 2.28168702125549316 33 56 68
0.741893887519836426 0.882132589817047119 1.65180659294128418 55 83 93
-0.0645383670926094055 -0.327926844358444214 0.939858138561248779 58 59 53
-0.661450386047363281 0.701503574848175049 1.3584970235824585 58 84 90
-1.21481704711914062 0.455032765865325928 1.58650517463684082 32 50 60
-0.118561126291751862 -0.485835671424865723 0.973593473434448242 72 89 96
0.532155692577362061 0.486005216836929321 2.24816751480102539 68 103 110
0.967178821563720703 0.935640513896942139 1.64332199096679688 36 59 67
0.461027622222900391 0.469715982675552368 2.26534152030944824 70 105 111
-0.50823897123336792 0.0254898462444543839 1.94588160514831543 55 80 87
-0.271249711513519287 0.600396871566772461 1.12425220012664795 98 125 137
-1.1291353702545166 0.514439702033996582 1.51398575305938721 33 53 62
0.809434354305267334 0.349780857563018799 2.55851054191589355 54 86 99
-0.763052165508270264 0.526366114616394043 1.63400447368621826 66 95 101
1.60976147651672363 0.692229330539703369 2.2735283374786377 29 51 64
0.164787665009498596 0.665784299373626709 1.81769108772277832 88 125 132
0.32621312141418457 0.764355242252349854 1.71477794647216797 87 124 132
-0.456943333148956299 0.420014113187789917 1.34059989452362061 36 48 48
-0.0801541581749916077 0.183104097843170166 1.06436836719512939 226 249 250
-1.40668129920959473 0.241204187273979187 1.88612949848175049 31 51 60
-1.06776416301727295 0.380656629800796509 1.76084506511688232 47 74 85
-0.708970129489898682 0.0679479017853736877 2.20908260345458984 46 75 91
-0.836281538009643555 0.646159470081329346 1.39437329769134521 47 71 79
-0.964600741863250732 0.633170902729034424 1.36634469032287598 36 56 65
-0.956524670124053955 0.473140478134155273 1.64963912963867188 51 78 89
-0.706656873226165771 0.0247478839010000229 1.88924062252044678 28 43 49
-1.69651544094085693 0.470798194408416748 2.17782282829284668 22 42 57
-0.169843465089797974 0.849800169467926025 1.56538236141204834 60 84 94
1.38234472274780273 0.739098906517028809 1.88176584243774414 32 50 62
-0.344260424375534058 0.830560803413391113 1.55523765087127686 70 100 102
0.394912540912628174 0.676490128040313721 1.94047331809997559 55 83 94
0.40415152907371521 0.563620209693908691 1.61671233177185059 26 40 46
1.45554864406585693 0.727855682373046875 1.89575743675231934 28 47 58
-0.0988948792219161987 0.837353825569152832 1.59431695938110352 78 109 119
0.256760746240615845 0.806165814399719238 1.7071303129196167 75 107 116
0.45749625563621521 0.566723644733428955 2.17697691917419434 65 98 107
-0.234441578388214111 0.239563241600990295 2.86094999313354492 55 89 108
0.0401907972991466522 0.0199454016983509064 0.909548521041870117 253 254 255
-0.065566524863243103 0.511603951454162598 2.27371549606323242 73 108 118
-0.654180943965911865 0.274866312742233276 1.78054821491241455 21 33 38
-1.16449105739593506 0.64818871021270752 1.85929226875305176 35 57 69
-1.09881532192230225 0.617522954940795898 1.91698360443115234 40 64 74
-0.167982161045074463 0.80789792537689209 1.64912962913513184 78 111 116
-0.423030197620391846 0.0711821690201759338 1.47017550468444824 43 56 58
0.563650190830230713 0.730418741703033447 1.85966587066650391 71 104 112
-1.05925452709197998 0.483482986688613892 2.23650026321411133 45 73 85
-0.533022165298461914 0.161710754036903381 1.59486556053161621 37 51 58
-0.969388723373413086 0.814349651336669922 1.50008046627044678 33 51 61
0.302952110767364502 0.648853659629821777 2.01424384117126465 76 112 121
-0.610508322715759277 0.754316747188568115 1.69225728511810303 61 90 96
1.22423088550567627 0.528096318244934082 2.25839114189147949 44 72 83
0.267107754945755005 0.6232491135597229 2.04697275161743164 70 103 113
1.54837262630462646 0.655296087265014648 2.03424334526062012 30 48 62
0.690670132637023926 0.237661123275756836 2.83823442459106445 38 67 81
-0.781303822994232178 0.66413569450378418 1.85797834396362305 57 85 96
-0.0637905970215797424 0.536810755729675293 2.21212983131408691 73 110 119
0.664843142032623291 0.867713689804077148 1.59838020801544189 62 89 96
-0.728492021560668945 0.726317048072814941 1.73238945007324219 58 86 97
-1.42233669757843018 0.547421157360076904 2.03384733200073242 29 52 66
-0.270590901374816895 0.466548055410385132 2.35013914108276367 56 88 103
1.4543912410736084 0.441945880651473999 2.44357633590698242 37 65 79
-0.594235599040985107 0.256176650524139404 2.76753044128417969 52 85 102
0.0459863096475601196 0.33140137791633606 0.904775500297546387 61 57 45
0.799614429473876953 0.35294342041015625 2.58164358139038086 37 64 77
0.0614956319332122803 -0.108690835535526276 1.63774120807647705 137 152 155
0.535165071487426758 0.636892855167388916 2.03283286094665527 46 67 75
-0.575259387493133545 0.752294540405273438 1.68772053718566895 57 84 92
-0.24581243097782135 0.329734474420547485 2.26555919647216797 34 49 54
-0.249353095889091492 0.708875358104705811 1.84632158279418945 80 111 116
1.41556370258331299 0.439961791038513184 2.43260598182678223 39 67 80
-0.982712268829345703 0.725522756576538086 1.69480264186859131 41 63 74
0.0635214149951934814 0.360607713460922241 0.897931396961212158 238 252 252
0.0401392914354801178 0.0840845406055450439 0.908383011817932129 74 76 63
1.05692577362060547 0.46715894341468811 2.35321640968322754 51 81 92
-0.0823784917593002319 0.797948718070983887 1.68972980976104736 66 95 106
-0.698574483394622803 0.392911612987518311 2.54523038864135742 43 67 78
-0.197608843445777893 0.823612213134765625 1.62271308898925781 65 92 101
-0.33762061595916748 0.451986908912658691 2.38276863098144531 58 91 103
-1.17029321193695068 0.423170357942581177 2.33976387977600098 43 71 85
0.305256187915802002 0.540194094181060791 2.22607207298278809 69 103 112
-0.216368019580841064 -0.121202960610389709 1.19195246696472168 19 30 38
-0.394938915967941284 0.552467644214630127 1.43894541263580322 41 64 75
0.42033812403678894 0.616218388080596924 2.28945112228393555 19 38 50
0.393004119396209717 0.830643713474273682 1.7589644193649292 7 22 30
-1.73850631713867188 0.55095672607421875 2.27042365074157715 51 76 81
1.42450380325317383 0.54155433177947998 2.5051271915435791 30 50 63
1.57720279693603516 0.734276711940765381 2.05420398712158203 8 22 32
-0.258190006017684937 -0.291211694478988647 1.01430618762969971 18 38 51
1.48591482639312744 0.794304013252258301 1.93530738353729248 9 26 39
-1.05448222160339355 0.851356565952301025 1.64869499206542969 14 29 40
0.603041112422943115 0.886042773723602295 1.63214349746704102 58 86 92
-0.698743581771850586 0.42578396201133728 2.60895037651062012 14 34 48
0.835344314575195312 0.764394104480743408 1.94616806507110596 13 32 46
-0.857187807559967041 0.651505053043365479 2.13977527618408203 9 25 36
0.228733479976654053 0.891807734966278076 1.59100890159606934 7 22 30
-0.107251532375812531 0.889271199703216553 1.56188070774078369 25 51 64
-0.124671146273612976 -0.124435767531394958 0.970842599868774414 27 52 66
-0.0242667514830827713 0.87420356273651123 1.55960261821746826 31 59 73
-1.19567203521728516 0.807631313800811768 1.74281978607177734 34 51 58
1.11523878574371338 0.89712977409362793 1.65256643295288086 36 58 69
-0.95411837100982666 0.808829367160797119 1.74540507793426514 13 32 44
0.616752445697784424 0.63967210054397583 2.23026394844055176 47 72 77
-0.837524712085723877 0.871107339859008789 1.63116157054901123 29 51 64
1.18044447898864746 0.883913695812225342 1.68296670913696289 29 51 64
-0.548880279064178467 0.060339849442243576 1.24624133110046387 6 19 26
0.964893817901611328 0.764672696590423584 1.94687736034393311 13 31 44
-0.301244258880615234 0.869124174118041992 1.60097837448120117 34 60 73
0.315293699502944946 0.598559737205505371 2.2992701530456543 46 68 80
-1.18158352375030518 0.59626615047454834 2.21532225608825684 19 38 50
-0.228502154350280762 0.561131477355957031 2.39966511726379395 16 31 41
-1.18835020065307617 0.825287938117980957 1.71554696559906006 8 28 42
1.27992904186248779 0.904063940048217773 1.6386871337890625 43 67 75
-1.03497767448425293 0.847717940807342529 1.67020714282989502 46 69 75
-0.45776793360710144 -0.0161004401743412018 1.20249617099761963 53 81 90
-1.23852396011352539 0.77281719446182251 1.80528116226196289 29 38 44
-0.0213205777108669281 0.266995221376419067 0.960466325283050537 33 53 64
-1.3825458288192749 0.457527488470077515 2.41197729110717773 26 44 54
-1.23135089874267578 0.831025302410125732 1.69633853435516357 10 29 43
-1.22120368480682373 0.88627469539642334 1.58113777637481689 30 56 68
-0.473589271306991577 0.814843058586120605 1.72550511360168457 29 57 69
-0.993496954441070557 0.850174367427825928 1.67504692077636719 39 65 76
-1.21494019031524658 0.463945239782333374 2.56521344184875488 11 31 45
-0.662737131118774414 0.453207552433013916 1.74092340469360352 31 57 72
-0.36890709400177002 0.76780778169631958 1.8313518762588501 12 30 41
-0.833195149898529053 0.883832752704620361 1.60201644897460938 7 25 33
0.541117966175079346 0.879858970642089844 1.67524659633636475 46 45 31
0.0242040790617465973 0.320399999618530273 2.20142340660095215 51 81 89
-1.76306664943695068 0.538410305976867676 2.30249834060668945 11 16 20
0.281239330768585205 0.881827175617218018 1.65123462677001953 14 30 37
0.271047025918960571 0.62240898609161377 2.31245136260986328 4 11 17
-0.833679676055908203 0.714876115322113037 1.95171916484832764 14 32 42
-0.22041746973991394 -0.0162579528987407684 1.21426045894622803 11 27 36
1.07986068725585938 0.543869614601135254 2.51583743095397949 8 24 32
0.286771446466445923 0.350899249315261841 2.94740462303161621 16 36 50
-0.475374191999435425 0.688430130481719971 2.02603602409362793 54 83 89
1.35459673404693604 0.780704736709594727 1.98769533634185791 8 26 34
0.0990210622549057007 0.565796494483947754 1.54470932483673096 38 62 72
-0.879260003566741943 0.865813076496124268 1.64850318431854248 9 24 33
-1.2876288890838623 0.838650047779083252 1.6815946102142334 9 24 33
-0.7703971266746521 0.578422844409942627 1.4093167781829834 13 31 42
-0.510531604290008545 0.853136777877807617 1.62436759471893311 13 36 50
-0.864870548248291016 0.731879115104675293 1.90623664855957031 14 29 38
-1.37723565101623535 0.703947603702545166 1.96935558319091797 10 29 39
0.66999351978302002 0.824305117130279541 1.81335163116455078 11 34 47
0.773104727268218994 0.739828050136566162 2.01984167098999023 10 25 36
0.828230619430541992 0.670468628406524658 2.20205855369567871 7 18 27
1.2963327169418335 0.601428747177124023 2.39140033721923828 18 34 41
1.28176009654998779 0.513415098190307617 2.58622217178344727 8 26 36
-0.334423720836639404 0.666604340076446533 2.06934762001037598 32 58 70
1.18014931678771973 0.703302443027496338 2.12502384185791016 9 27 37
0.191043242812156677 0.548585772514343262 2.10730338096618652 10 34 48
-1.46471381187438965 0.550021827220916748 2.266571044921875 13 33 46
-1.46026933193206787 0.74259418249130249 1.89066493511199951 13 31 41
0.726927638053894043 0.450638771057128906 2.7612459659576416 10 28 38
-0.204528346657752991 0.133614495396614075 1.44346559047698975 22 42 56
-0.728145778179168701 0.734377205371856689 1.9127432107925415 25 51 64
0.60792464017868042 0.893218159675598145 1.64536094665527344 7 18 25
0.524187147617340088 0.822188496589660645 1.80869543552398682 10 25 37
-0.181855916976928711 -0.209212750196456909 0.966482698917388916 22 40 49
0.0838237255811691284 0.812078773975372314 1.89699530601501465 6 24 31
1.12676835060119629 0.695122480392456055 2.15787672996520996 32 57 71
0.164978712797164917 0.310302436351776123 2.13204431533813477 22 40 49
1.08681595325469971 0.856339752674102783 1.74801194667816162 11 29 39
-0.86076587438583374 0.428845375776290894 2.62770891189575195 12 29 41
-1.02522337436676025 0.781466841697692871 1.78859579563140869 12 32 46
-0.300080299377441406 0.762097716331481934 1.85683727264404297 8 25 33
-0.803825914859771729 0.705557346343994141 1.97385907173156738 11 31 45
-1.04013431072235107 0.44667091965675354 2.59645962715148926 9 27 37
-0.137467071413993835 0.0041425265371799469 0.970178425312042236 49 76 87
-0.0209263823926448822 0.436855703592300415 0.942708313465118408 5 14 21
0.149839609861373901 0.936662018299102783 1.78339922428131104 18 38 52
-0.262834548950195312 -0.148108214139938354 0.957628011703491211 4 13 18
0.126184478402137756 0.668223083019256592 2.4826655387878418 45 69 79
-0.341945797204971313 -0.204326674342155457 0.984049320220947266 9 14 18
0.377008318901062012 0.799164414405822754 2.13048148155212402 16 34 43
-0.386368811130523682 0.804150879383087158 1.91803646087646484 8 26 36
1.14607405662536621 0.935582578182220459 1.84332156181335449 17 35 43
-0.672529101371765137 0.662243783473968506 1.26090836524963379 8 25 37
-0.441705703735351562 -0.0789855197072029114 1.05039763450622559 13 33 47
-0.799809157848358154 0.863602280616760254 1.76283669471740723 12 31 44
-0.866383254528045654 0.644955158233642578 1.34068465232849121 12 31 43
0.167625337839126587 0.700538277626037598 2.36953258514404297 35 57 68
0.343258976936340332 0.931750357151031494 1.8043816089630127 9 25 33
-0.639270424842834473 0.702861607074737549 2.12369179725646973 10 28 40
-1.34698271751403809 0.776993870735168457 2.17370915412902832 8 26 34
0.802850484848022461 0.918635785579681396 1.84197568893432617 7 26 36
0.279929369688034058 0.785755693912506104 2.14523100852966309 20 39 51
-0.139729335904121399 0.295134514570236206 0.942009508609771729 22 49 64
0.70998305082321167 0.762546420097351074 2.24415874481201172 24 41 48
-1.14020740985870361 0.797060191631317139 1.9011237621307373 11 34 47
1.59678709506988525 0.747500360012054443 2.32047390937805176 8 26 37
1.46001076698303223 0.895373284816741943 1.96969127655029297 55 82 89
1.18702566623687744 0.97040790319442749 1.75894069671630859 11 26 37
1.06857669353485107 0.583293735980987549 2.69820594787597656 44 71 81
-0.106811217963695526 0.859537243843078613 1.92831218242645264 18 36 43
1.21502172946929932 0.903552889823913574 1.91335642337799072 48 72 82
-0.221834197640419006 0.45473894476890564 2.9457399845123291 12 26 34
-1.01243281364440918 0.853877604007720947 1.80816435813903809 14 33 47
1.36193037033081055 0.647727251052856445 2.57549238204956055 10 25 34
1.05742454528808594 0.684834420680999756 2.46356606483459473 15 35 49
-1.17661440372467041 0.466617166996002197 2.71240544319152832 16 35 47
-0.377318322658538818 0.880214929580688477 1.70458066463470459 10 27 40
0.411071896553039551 0.566705584526062012 2.73310184478759766 21 40 50
-1.47150754928588867 1.04680156707763672 2.02718400955200195 22 46 60
-0.0696860030293464661 0.436987638473510742 0.925361573696136475 18 41 55
-0.794452965259552002 0.85182499885559082 1.80381786823272705 7 25 33
